HIERARCHY
ROOT Hips
{
  OFFSET -7.4838 96.1112 52.0518
  CHANNELS 6 Xposition Yposition Zposition Zrotation Xrotation Yrotation
  JOINT Chest
  {
    OFFSET 0 10.5691 -1.07959
    CHANNELS 6 Xposition Yposition Zposition Zrotation Xrotation Yrotation
    JOINT Chest2
    {
      OFFSET 0 11.6675 1.08235
      CHANNELS 6 Xposition Yposition Zposition Zrotation Xrotation Yrotation
      JOINT Chest3
      {
        OFFSET 0 10.5876 0
        CHANNELS 6 Xposition Yposition Zposition Zrotation Xrotation Yrotation
        JOINT Chest4
        {
          OFFSET 0 10.5876 0
          CHANNELS 6 Xposition Yposition Zposition Zrotation Xrotation Yrotation
          JOINT Neck
          {
            OFFSET 0 14.88 0
            CHANNELS 6 Xposition Yposition Zposition Zrotation Xrotation Yrotation
            JOINT Head
            {
              OFFSET 0 9.61471 2.16553
              CHANNELS 6 Xposition Yposition Zposition Zrotation Xrotation Yrotation
              End Site
              {
                OFFSET 0 0 0
              }
            }
          }
          JOINT RightCollar
          {
            OFFSET -3.23953 8.30385 0
            CHANNELS 6 Xposition Yposition Zposition Zrotation Xrotation Yrotation
            JOINT RightShoulder
            {
              OFFSET -15.1725 0 0
              CHANNELS 6 Xposition Yposition Zposition Zrotation Xrotation Yrotation
              JOINT RightElbow
              {
                OFFSET -32.4113 0 0
                CHANNELS 6 Xposition Yposition Zposition Zrotation Xrotation Yrotation
                JOINT RightWrist
                {
                  OFFSET -26.4919 0 1.0813
                  CHANNELS 6 Xposition Yposition Zposition Zrotation Xrotation Yrotation
                  End Site
                  {
                    OFFSET 0 0 0
                  }
                }
              }
            }
          }
          JOINT LeftCollar
          {
            OFFSET 3.23953 8.30385 0
            CHANNELS 6 Xposition Yposition Zposition Zrotation Xrotation Yrotation
            JOINT LeftShoulder
            {
              OFFSET 15.1725 0 0
              CHANNELS 6 Xposition Yposition Zposition Zrotation Xrotation Yrotation
              JOINT LeftElbow
              {
                OFFSET 32.4113 0 0
                CHANNELS 6 Xposition Yposition Zposition Zrotation Xrotation Yrotation
                JOINT LeftWrist
                {
                  OFFSET 26.4919 0 1.0813
                  CHANNELS 6 Xposition Yposition Zposition Zrotation Xrotation Yrotation
                  End Site
                  {
                    OFFSET 0 0 0
                  }
                }
              }
            }
          }
        }
      }
    }
  }
  JOINT RightHip
  {
    OFFSET -8.63673 0.00547028 0
    CHANNELS 6 Xposition Yposition Zposition Zrotation Xrotation Yrotation
    JOINT RightKnee
    {
      OFFSET 0 -44.4933 -2.13962
      CHANNELS 6 Xposition Yposition Zposition Zrotation Xrotation Yrotation
      JOINT RightAnkle
      {
        OFFSET 0 -43.4407 -3.54051
        CHANNELS 6 Xposition Yposition Zposition Zrotation Xrotation Yrotation
        JOINT RightToe
        {
          OFFSET 0 -8.3927 19.1252
          CHANNELS 6 Xposition Yposition Zposition Zrotation Xrotation Yrotation
          End Site
          {
            OFFSET 0 0 0
          }
        }
      }
    }
  }
  JOINT LeftHip
  {
    OFFSET 8.63673 0.00547028 0
    CHANNELS 6 Xposition Yposition Zposition Zrotation Xrotation Yrotation
    JOINT LeftKnee
    {
      OFFSET 0 -44.4932 -2.13963
      CHANNELS 6 Xposition Yposition Zposition Zrotation Xrotation Yrotation
      JOINT LeftAnkle
      {
        OFFSET 0 -43.4407 -3.54051
        CHANNELS 6 Xposition Yposition Zposition Zrotation Xrotation Yrotation
        JOINT LeftToe
        {
          OFFSET 0 -8.39271 19.1252
          CHANNELS 6 Xposition Yposition Zposition Zrotation Xrotation Yrotation
          End Site
          {
            OFFSET 0 0 0
          }
        }
      }
    }
  }
}
MOTION
Frames:	9
Frame Time:	0.0333333
19.8844 92.2883 -81.0866 6.20672 4.12464 -51.8829 0 10.5691 -1.07959 0.21767 0.145897 -0.0199098 0 11.6675 1.08235 0.43539 0.291729 -0.0403246 0 10.5876 0 0.435388 0.291729 -0.0403343 7.10543e-015 10.5876 -1.42109e-014 0.435392 0.291732 -0.0403411 -7.10543e-015 14.88 0 -4.78387 -7.96067 0.60247 0 9.61456 2.16553 2.79293 5.47115 -1.25446 -3.23953 8.30385 0 1.19271e-015 7.95139e-016 3.18055e-015 -15.1725 -4.76837e-006 1.42109e-014 67.9246 3.51522 -0.504711 -32.4113 5.4454e-006 3.11526e-006 22.498 -5.71705 18.1057 -26.4919 -7.03839e-006 1.0813 -22.5498 0.871928 -6.1015 3.23953 8.30385 0 1.19271e-015 7.95139e-016 3.18055e-015 15.1725 -4.76837e-006 0 -68.254 12.3439 -13.8981 32.4113 1.86605e-006 1.0616e-006 -17.7711 -0.867083 -19.4371 26.4919 -3.46624e-007 1.0813 12.6954 -0.270097 -0.700743 -8.63673 0.00547028 0 -10.8793 -21.3988 -78.9198 2.54839e-006 -44.4933 -2.13963 -19.9435 20.9803 78.2198 1.45139e-008 -43.4407 -3.54051 -17.0207 -1.2961 0.673291 1.75116e-007 -8.3927 19.1252 -8.99878 -11.3456 -8.23441 8.63673 0.00547028 -1.42109e-014 14.7701 -38.3665 37.4204 0.000372477 -44.4932 -2.13949 31.6358 55.6473 -63.5866 -9.31167e-007 -43.4407 -3.54051 -11.6173 0.423758 0.685528 -5.33191e-007 -8.39271 19.1252 -2.47391 3.05534 -1.21462 
17.1216 92.5166 -80.4759 6.36222 3.85437 -50.1841 0 10.5691 -1.07959 0.095279 0.154728 -0.0328067 0 11.6675 1.08235 0.190645 0.309396 -0.0658452 7.10543e-015 10.5876 0 0.190643 0.309397 -0.0658609 7.10543e-015 10.5876 -1.42109e-014 0.190644 0.309396 -0.0658361 0 14.88 0 -4.96079 -7.48119 0.744233 -7.10543e-015 9.61455 2.16553 3.24482 5.36756 -1.29754 -3.23953 8.30385 1.42109e-014 -8.82781e-032 -7.95139e-016 -6.36111e-015 -15.1725 -4.76837e-006 0 67.1709 2.70306 0.382909 -32.4113 5.4454e-006 3.11526e-006 22.1254 -5.36933 18.2891 -26.4919 -7.03839e-006 1.0813 -22.9788 0.805454 -5.68985 3.23953 8.30385 0 -8.82781e-032 -7.95139e-016 -6.36111e-015 15.1725 -4.76837e-006 0 -68.6358 9.02217 -10.6943 32.4113 1.86605e-006 1.0616e-006 -18.2198 -1.69113 -16.0019 26.4919 -3.46624e-007 1.0813 13.5944 -0.24943 -0.358322 -8.63673 0.00547028 0 -11.6848 -18.2669 -86.9535 2.54839e-006 -44.4933 -2.13963 -20.5428 20.0257 84.2754 1.45139e-008 -43.4407 -3.54051 -16.2208 -3.45615 0.348705 1.75116e-007 -8.3927 19.1252 -8.62011 -10.9007 -7.22485 8.63673 0.00547028 0 11.6557 -40.3583 30.3133 0.000371321 -44.4932 -2.13949 20.0759 56.3772 -46.9806 -9.31167e-007 -43.4407 -3.54051 -6.6392 1.34983 0.452529 -5.33191e-007 -8.39271 19.1252 1.83594 -1.74539 -1.08617 
14.4293 92.5037 -80.0277 6.60082 4.12139 -48.993 0 10.5691 -1.07959 0.0627865 0.1071 -0.00416046 0 11.6675 1.08235 0.125588 0.214209 -0.00842518 0 10.5876 0 0.125586 0.214208 -0.00842855 -7.10543e-015 10.5876 -1.42109e-014 0.125586 0.214209 -0.00842969 7.10543e-015 14.88 0 -5.6709 -6.9448 0.920219 -7.10543e-015 9.61455 2.16553 3.89213 5.03127 -1.47976 -3.23953 8.30385 -1.42109e-014 3.97569e-016 1.98785e-015 -6.36111e-015 -15.1725 -4.76837e-006 0 66.5498 1.02089 1.04339 -32.4113 5.4454e-006 3.11526e-006 21.5677 -4.94415 18.8096 -26.4919 -7.03839e-006 1.0813 -23.3495 0.743858 -5.33121 3.23953 8.30385 -1.42109e-014 3.97569e-016 1.98785e-015 -6.36111e-015 15.1725 -4.76837e-006 1.42109e-014 -68.8203 5.37696 -8.06538 32.4113 1.86605e-006 1.0616e-006 -18.5659 -2.59548 -11.4697 26.4919 -3.46624e-007 1.0813 15.1755 -0.270492 -0.302741 -8.63673 0.00547028 0 -11.783 -16.0508 -94.4681 2.54839e-006 -44.4933 -2.13963 -22.0239 18.9954 91.3982 1.45139e-008 -43.4407 -3.54051 -15.1716 -6.61535 -0.0732876 1.75116e-007 -8.3927 19.1252 -6.67753 -8.7999 -6.51447 8.63673 0.00547028 0 9.30895 -41.8384 24.1761 0.000370161 -44.4932 -2.13949 7.70896 53.3973 -33.2679 -9.31167e-007 -43.4407 -3.54051 -3.11984 1.45714 0.230882 -5.33191e-007 -8.39271 19.1252 4.35194 -4.62347 -0.305183 
11.7841 92.491 -79.4619 6.77444 4.478 -47.9011 0 10.5691 -1.07959 0.0489726 0.0743345 0.0227243 0 11.6675 1.08235 0.0979082 0.14874 0.0454305 0 10.5876 0 0.0979084 0.148739 0.0454337 0 10.5876 0 0.0979088 0.148739 0.0454243 0 14.8799 -1.42109e-014 -6.02804 -6.38413 1.05154 -1.42109e-014 9.61455 2.16553 4.10071 4.12404 -1.49067 -3.23953 8.30385 -1.42109e-014 -3.97569e-016 1.19271e-015 -0 -15.1725 -4.76837e-006 1.42109e-014 65.9146 -0.317881 1.53822 -32.4113 5.4454e-006 3.11526e-006 20.9455 -4.10528 19.5624 -26.4919 -7.03839e-006 1.0813 -23.6355 0.590283 -4.5458 3.23953 8.30385 0 -3.97569e-016 1.19271e-015 -0 15.1725 -4.76837e-006 0 -69.0138 0.535741 -6.05588 32.4113 1.86605e-006 1.0616e-006 -18.413 -4.07642 -6.4384 26.4919 -3.46624e-007 1.0813 16.5987 -0.21844 0.225371 -8.63673 0.00547028 0 -12.0984 -13.7653 -102.188 2.54839e-006 -44.4933 -2.13963 -23.8908 18.2555 100.165 1.45139e-008 -43.4407 -3.54051 -11.3099 -11.8495 -0.611516 1.75116e-007 -8.3927 19.1252 -2.15884 -4.03634 -7.17935 8.63673 0.00547028 -1.42109e-014 6.69332 -42.2304 17.6699 0.000368997 -44.4932 -2.13949 -2.02192 46.122 -22.9512 -9.31167e-007 -43.4407 -3.54051 -1.67051 2.07011 0.156363 -5.33191e-007 -8.39271 19.1252 7.40507 -7.78923 -1.02075 
9.05341 92.5121 -78.5826 6.71686 4.50396 -46.6336 -7.10543e-015 10.5691 -1.07959 0.0138805 0.0887647 0.003637 0 11.6675 1.08235 0.0277412 0.177543 0.00724532 -7.10543e-015 10.5876 0 0.0277429 0.177545 0.00722057 7.10543e-015 10.5876 -1.42109e-014 0.0277418 0.177544 0.00723215 0 14.8799 0 -6.01468 -6.16963 0.984644 0 9.61455 2.16553 4.00463 3.66481 -1.52402 -3.23953 8.30385 -1.42109e-014 -3.97569e-016 -3.97569e-016 -3.18055e-015 -15.1725 -4.76837e-006 1.42109e-014 65.3087 -1.10304 1.89244 -32.4113 5.4454e-006 3.11526e-006 20.4021 -3.29168 20.6063 -26.4919 -7.03839e-006 1.0813 -22.9533 0.459432 -3.99415 3.23953 8.30385 0 -3.97569e-016 -3.97569e-016 -3.18055e-015 15.1725 -4.76837e-006 0 -68.9609 -4.25601 -4.39059 32.4113 1.86605e-006 1.0616e-006 -17.8133 -5.69377 -1.43675 26.4919 -3.46624e-007 1.0813 19.025 -0.198674 0.555296 -8.63673 0.00547028 0 -13.3852 -9.71194 -110.067 2.54839e-006 -44.4933 -2.13963 -25.5516 18.5579 114.875 1.45139e-008 -43.4407 -3.54051 -0.122692 -23.5154 0.405556 1.75116e-007 -8.3927 19.1252 8.05657 4.74219 -14.0266 8.63673 0.00547028 0 3.21127 -40.7651 10.4892 0.00036783 -44.4932 -2.13949 -7.18578 35.2481 -17.4221 -9.31167e-007 -43.4407 -3.54051 -1.47711 2.97975 0.18605 -5.33191e-007 -8.39271 19.1252 8.31007 -8.81157 -0.44643 
6.48766 92.1189 -77.59 6.73685 4.61116 -45.7202 0 10.5691 -1.07959 -0.00393084 0.107903 0.0158413 -7.10543e-015 11.6675 1.08235 -0.00788827 0.215809 0.0317136 0 10.5876 0 -0.00788568 0.215809 0.0316921 -7.10543e-015 10.5876 0 -0.00788763 0.215808 0.0316947 0 14.8799 0 -5.86357 -6.1384 0.870938 -7.10543e-015 9.61455 2.16553 3.65954 3.14706 -1.49451 -3.23953 8.30385 0 7.95139e-016 -3.18055e-015 1.59028e-014 -15.1725 -4.76837e-006 1.42109e-014 64.7844 -1.28281 2.27585 -32.4113 5.4454e-006 3.11526e-006 20.1166 -2.92152 21.8838 -26.4919 -7.03839e-006 1.0813 -22.7067 0.427573 -3.85768 3.23953 8.30385 -1.42109e-014 7.95139e-016 -3.18055e-015 1.59028e-014 15.1725 -4.76837e-006 0 -68.893 -8.31792 -2.8902 32.4113 1.86605e-006 1.0616e-006 -16.8809 -6.65826 2.14304 26.4919 -3.46624e-007 1.0813 21.2947 -0.225802 0.518885 -8.63673 0.00547028 0 -13.7418 -4.93747 -117.932 2.54839e-006 -44.4933 -2.13963 -25.1052 14.047 134.412 1.45139e-008 -43.4407 -3.54051 37.6443 -45.294 16.3301 1.75116e-007 -8.3927 19.1252 24.6405 12.2765 -30.9788 8.63673 0.00547028 0 -0.0498624 -39.4426 4.28093 0.000366658 -44.4932 -2.13949 -8.18575 24.2649 -14.073 -9.31167e-007 -43.4407 -3.54051 -4.61329 4.52905 0.499685 -5.33191e-007 -8.39271 19.1252 9.45425 -10.0243 -0.326481 
3.98787 90.9793 -76.683 6.54503 4.77526 -45.048 -7.10543e-015 10.5691 -1.07959 -0.01695 0.110904 0.0528136 0 11.6675 1.08235 -0.034003 0.221785 0.105608 7.10543e-015 10.5876 0 -0.0340041 0.221781 0.10562 -7.10543e-015 10.5876 -1.42109e-014 -0.034002 0.221786 0.10561 0 14.8799 -1.42109e-014 -5.25734 -5.68813 0.782896 -7.10543e-015 9.61455 2.16553 3.17249 2.3926 -1.31202 -3.23953 8.30385 -1.42109e-014 -1.76556e-031 1.59028e-015 6.36111e-015 -15.1725 -4.76837e-006 1.42109e-014 64.5772 -1.07134 2.43177 -32.4113 5.4454e-006 3.11526e-006 19.8466 -2.42748 22.8815 -26.4919 -7.03839e-006 1.0813 -22.1916 0.34953 -3.5123 3.23953 8.30385 -1.42109e-014 -1.76556e-031 1.59028e-015 6.36111e-015 15.1725 -4.76837e-006 0 -68.6834 -11.4289 -0.915408 32.4113 1.86605e-006 1.0616e-006 -16.1684 -7.13043 2.38161 26.4919 -3.46624e-007 1.0813 22.5994 -0.171971 0.875421 -8.63673 0.00547028 0 -10.5169 -1.36912 -125.557 2.54839e-006 -44.4933 -2.13963 -19.2673 2.9319 123.239 1.45139e-008 -43.4407 -3.54051 102.368 -43.6206 39.3248 1.75116e-007 -8.3927 19.1252 42.8283 16.6869 -46.9147 8.63673 0.00547028 0 -1.94474 -39.2809 -0.23592 0.000365483 -44.4932 -2.13949 -8.45109 16.4034 -11.6874 -9.31167e-007 -43.4407 -3.54051 -6.63822 4.72198 0.682388 -5.33191e-007 -8.39271 19.1252 9.70409 -10.3033 -0.104502 
1.52457 90.22 -75.7221 6.28916 5.2605 -44.8562 0 10.5691 -1.07959 0.0513102 0.0895311 0.100233 7.10543e-015 11.6675 1.08235 0.102442 0.179158 0.20033 0 10.5876 0 0.102438 0.17916 0.200357 -7.10543e-015 10.5876 -1.42109e-014 0.10244 0.179157 0.200324 0 14.8799 1.42109e-014 -4.80823 -5.57096 0.813469 -1.42109e-014 9.61455 2.16553 2.66038 1.83034 -1.04012 -3.23953 8.30385 0 -1.76556e-031 1.59028e-015 6.36111e-015 -15.1725 -4.76837e-006 1.42109e-014 64.1055 -0.303073 2.73561 -32.4113 5.4454e-006 3.11526e-006 19.837 -2.24169 23.6539 -26.4919 -7.03839e-006 1.0813 -21.7895 0.327301 -3.42997 3.23953 8.30385 1.42109e-014 -1.76556e-031 1.59028e-015 6.36111e-015 15.1725 -4.76837e-006 0 -68.8997 -13.6996 1.21688 32.4113 1.86605e-006 1.0616e-006 -15.786 -5.91441 2.33765 26.4919 -3.46624e-007 1.0813 23.0482 -0.337798 0.0711007 -8.63673 0.00547028 1.42109e-014 -9.30702 1.93362 -131.2 2.54839e-006 -44.4933 -2.13963 -17.4129 1.55222 53.2059 1.45139e-008 -43.4407 -3.54051 123.968 4.37663 -7.1114 1.75116e-007 -8.3927 19.1252 65.3362 10.3888 -69.3113 8.63673 0.00547028 0 -2.00605 -39.0673 -2.97393 0.000364304 -44.4932 -2.13949 -9.32741 9.3237 -9.97427 -9.31167e-007 -43.4407 -3.54051 -6.5475 4.79786 0.640506 -5.33191e-007 -8.39271 19.1252 7.83797 -8.50378 1.31258 
-1.0521 89.926 -74.4571 6.02106 5.7783 -45.1637 0 10.5691 -1.07959 0.129284 0.0533254 0.198727 7.10543e-015 11.6675 1.08235 0.258374 0.107081 0.397307 7.10543e-015 10.5876 0 0.258373 0.107083 0.397319 0 10.5876 -1.42109e-014 0.258374 0.107082 0.397306 0 14.8799 0 -4.78702 -5.16723 0.824336 0 9.61455 2.16553 2.88444 0.859961 -1.07114 -3.23953 8.30385 0 7.95139e-016 -1.59028e-015 3.18055e-015 -15.1725 -4.76837e-006 0 63.7515 0.188705 2.89133 -32.4113 5.4454e-006 3.11526e-006 19.8928 -2.23608 23.9407 -26.4919 -7.03839e-006 1.0813 -21.2628 0.337434 -3.52729 3.23953 8.30385 0 7.95139e-016 -1.59028e-015 3.18055e-015 15.1725 -4.76837e-006 0 -69.2335 -14.6523 3.63597 32.4113 1.86605e-006 1.0616e-006 -15.7994 -5.86208 2.3398 26.4919 -3.46624e-007 1.0813 23.0146 -0.339549 0.0615671 -8.63673 0.00547028 0 -8.44186 4.0254 -134.263 2.54839e-006 -44.4933 -2.13963 -24.7746 -1.97459 -27.446 1.45139e-008 -43.4407 -3.54051 140.075 28.383 -80.455 1.75116e-007 -8.3927 19.1252 56.1641 -1.78836 -82.7325 8.63673 0.00547028 1.42109e-014 -2.11122 -38.8101 -5.50276 0.000363121 -44.4932 -2.13949 -9.21604 4.81182 -9.50489 -9.31167e-007 -43.4407 -3.54051 -6.05728 4.54085 0.567518 -5.33191e-007 -8.39271 19.1252 4.79137 -5.51701 2.21476 
